<svg width="18" height="18" viewBox="0 0 18 18" fill="none" xmlns="http://www.w3.org/2000/svg">
<g clip-path="url(#clip0_4159_1006)">
<path d="M16.2851 7.86002L14.6101 7.36002C14.4943 6.95567 14.335 6.56506 14.1351 6.19502L14.9551 4.66002C14.9859 4.60207 14.9971 4.53576 14.9872 4.47091C14.9773 4.40605 14.9468 4.34613 14.9001 4.30002L13.7051 3.10002C13.659 3.05335 13.5991 3.0228 13.5342 3.01289C13.4694 3.00298 13.403 3.01425 13.3451 3.04502L11.8201 3.86002C11.4464 3.65035 11.0507 3.48266 10.6401 3.36002L10.1401 1.70502C10.119 1.64402 10.079 1.59131 10.026 1.55448C9.97298 1.51764 9.90965 1.49857 9.84511 1.50002H8.15511C8.09018 1.50032 8.02704 1.52133 7.97488 1.56C7.92272 1.59867 7.88427 1.65298 7.86511 1.71502L7.36511 3.36502C6.95111 3.487 6.55199 3.6547 6.17511 3.86502L4.67511 3.05502C4.61717 3.02425 4.55085 3.01298 4.486 3.02289C4.42115 3.0328 4.36122 3.06335 4.31511 3.11002L3.10011 4.29502C3.05344 4.34113 3.02289 4.40105 3.01298 4.46591C3.00307 4.53076 3.01434 4.59707 3.04511 4.65502L3.85511 6.15502C3.64514 6.53031 3.47744 6.92774 3.35511 7.34002L1.70011 7.84002C1.63807 7.85917 1.58376 7.89763 1.54509 7.94979C1.50642 8.00195 1.48541 8.06509 1.48511 8.13002V9.82001C1.48541 9.88494 1.50642 9.94808 1.54509 10.0002C1.58376 10.0524 1.63807 10.0909 1.70011 10.11L3.36511 10.61C3.48878 11.0154 3.65645 11.4061 3.86511 11.775L3.04511 13.345C3.01434 13.403 3.00307 13.4693 3.01298 13.5341C3.02289 13.599 3.05344 13.6589 3.10011 13.705L4.29511 14.9C4.34122 14.9467 4.40115 14.9772 4.466 14.9871C4.53085 14.997 4.59717 14.9858 4.65511 14.955L6.20011 14.13C6.56559 14.3272 6.95112 14.4848 7.35011 14.6L7.85011 16.285C7.86927 16.3471 7.90772 16.4014 7.95988 16.44C8.01204 16.4787 8.07518 16.4997 8.14011 16.5H9.83011C9.89504 16.4997 9.95817 16.4787 10.0103 16.44C10.0625 16.4014 10.1009 16.3471 10.1201 16.285L10.6201 14.595C11.0157 14.4792 11.3978 14.3216 11.7601 14.125L13.3151 14.955C13.373 14.9858 13.4394 14.997 13.5042 14.9871C13.5691 14.9772 13.629 14.9467 13.6751 14.9L14.8701 13.705C14.9168 13.6589 14.9473 13.599 14.9572 13.5341C14.9671 13.4693 14.9559 13.403 14.9251 13.345L14.0951 11.795C14.2938 11.4314 14.453 11.0475 14.5701 10.65L16.2551 10.15C16.3171 10.1309 16.3715 10.0924 16.4101 10.0402C16.4488 9.98808 16.4698 9.92494 16.4701 9.86001V8.15501C16.4731 8.09284 16.4569 8.03125 16.4238 7.97852C16.3908 7.92579 16.3424 7.88443 16.2851 7.86002ZM9.00011 11.75C8.45621 11.75 7.92452 11.5887 7.47229 11.2866C7.02005 10.9844 6.66758 10.5549 6.45944 10.0524C6.2513 9.5499 6.19684 8.99696 6.30295 8.46352C6.40906 7.93007 6.67097 7.44007 7.05556 7.05547C7.44016 6.67088 7.93016 6.40897 8.46361 6.30286C8.99706 6.19675 9.54999 6.25121 10.0525 6.45935C10.555 6.66749 10.9845 7.01996 11.2866 7.4722C11.5888 7.92443 11.7501 8.45612 11.7501 9.00002C11.7501 9.72936 11.4604 10.4288 10.9447 10.9446C10.4289 11.4603 9.72945 11.75 9.00011 11.75Z" fill="#85A1AF"/>
</g>
<defs>
<clipPath id="clip0_4159_1006">
<rect width="18" height="18" fill="white"/>
</clipPath>
</defs>
</svg>
