<svg width="16" height="16" viewBox="0 0 16 16" fill="none" xmlns="http://www.w3.org/2000/svg">
<g clip-path="url(#clip0_4397_876)">
<path d="M3.99992 4.00004H9.33325M3.99992 6.66671H11.9999M8.66659 9.33337H11.9999M8.66659 12H11.9999M1.33325 14.2667V1.73337C1.33325 1.62729 1.37539 1.52555 1.45041 1.45053C1.52542 1.37552 1.62717 1.33337 1.73325 1.33337H12.1679C12.274 1.33347 12.3756 1.37567 12.4506 1.45071L14.5493 3.54937C14.5866 3.58664 14.6161 3.63092 14.6363 3.67966C14.6564 3.7284 14.6667 3.78064 14.6666 3.83337V14.2667C14.6666 14.3192 14.6562 14.3712 14.6361 14.4198C14.616 14.4683 14.5866 14.5124 14.5494 14.5495C14.5123 14.5867 14.4682 14.6162 14.4197 14.6363C14.3711 14.6564 14.3191 14.6667 14.2666 14.6667H1.73325C1.68072 14.6667 1.62871 14.6564 1.58018 14.6363C1.53165 14.6162 1.48755 14.5867 1.45041 14.5495C1.41327 14.5124 1.3838 14.4683 1.3637 14.4198C1.3436 14.3712 1.33325 14.3192 1.33325 14.2667Z" stroke="white" stroke-linecap="round" stroke-linejoin="round"/>
<path d="M11.9998 1.3335V3.60016C11.9998 3.65269 12.0101 3.70471 12.0302 3.75324C12.0503 3.80177 12.0798 3.84586 12.1169 3.88301C12.1541 3.92015 12.1982 3.94961 12.2467 3.96971C12.2952 3.98982 12.3472 4.00016 12.3998 4.00016H14.6664M3.99976 12.0002V9.3335H5.99976V12.0002H3.99976Z" stroke="white" stroke-linecap="round" stroke-linejoin="round"/>
</g>
<defs>
<clipPath id="clip0_4397_876">
<rect width="16" height="16" fill="white"/>
</clipPath>
</defs>
</svg>
