<svg width="28" height="28" viewBox="0 0 28 28" fill="none" xmlns="http://www.w3.org/2000/svg">
<path d="M21 23C21 21.6739 20.2625 20.4021 18.9497 19.4645C17.637 18.5268 15.8565 18 14 18C12.1435 18 10.363 18.5268 9.05025 19.4645C7.7375 20.4021 7 21.6739 7 23" fill="#202020"/>
<path d="M21 23C21 21.6739 20.2625 20.4021 18.9497 19.4645C17.637 18.5268 15.8565 18 14 18C12.1435 18 10.363 18.5268 9.05025 19.4645C7.7375 20.4021 7 21.6739 7 23" stroke="#202020" stroke-width="2" stroke-linecap="round" stroke-linejoin="round"/>
<path d="M14 15C16.2091 15 18 13.2091 18 11C18 8.79086 16.2091 7 14 7C11.7909 7 10 8.79086 10 11C10 13.2091 11.7909 15 14 15Z" fill="#202020" stroke="#202020" stroke-width="2" stroke-linecap="round" stroke-linejoin="round"/>
<path d="M13.9999 25.6668C20.4432 25.6668 25.6666 20.4435 25.6666 14.0002C25.6666 7.55684 20.4432 2.3335 13.9999 2.3335C7.5566 2.3335 2.33325 7.55684 2.33325 14.0002C2.33325 20.4435 7.5566 25.6668 13.9999 25.6668Z" stroke="#202020" stroke-width="2" stroke-linecap="round" stroke-linejoin="round"/>
<path d="M20 22H8C10 24.5 11.5 26 14.5 26C16.9 26 19.1667 23.3333 20 22Z" fill="#202020" stroke="#202020"/>
</svg>
